<?xml version="1.0" encoding="iso-8859-1"?>
<!-- Generator: Adobe Illustrator 19.1.0, SVG Export Plug-In . SVG Version: 6.00 Build 0)  -->
<svg version="1.1" id="Capa_1" xmlns="http://www.w3.org/2000/svg" xmlns:xlink="http://www.w3.org/1999/xlink" x="0px" y="0px"
	 viewBox="0 0 548.266 548.266" style="enable-background:new 0 0 548.266 548.266;" xml:space="preserve">
<g>
	<g>
		<path d="M487.906,279.163l15.09-108.144c0-2.515,0-7.545-2.515-10.06c-2.515-2.515-7.545-5.03-10.06-5.03h-37.725V93.054
			c0-7.545-5.03-12.575-12.575-12.575H261.558l-55.33-47.785c0-2.515-5.03-2.515-7.545-2.515H62.874
			c-7.545,0-12.575,5.03-12.575,12.575v113.174H12.575c-2.515,0-7.545,2.515-10.06,5.03C0,163.474,0,165.989,0,171.019l50.3,276.648
			c0,5.03,5.03,10.06,12.575,10.06h238.923c2.515,0,2.515,0,5.03,0c22.635,37.725,62.874,60.359,110.659,60.359
			c72.934,0,130.779-57.845,130.779-130.779C545.751,342.037,523.116,304.313,487.906,279.163z M75.449,155.929V55.33h118.204
			l55.33,47.785c2.515,2.515,5.03,2.515,7.545,2.515h171.019v50.3H75.449z M414.972,492.936
			c-57.845,0-105.629-47.785-105.629-105.629s47.785-105.629,105.629-105.629s105.629,47.785,105.629,105.629
			S472.816,492.936,414.972,492.936z"/>
		<path d="M477.846,382.277h-50.3v-50.3c0-7.545-5.03-12.575-12.575-12.575s-12.575,5.03-12.575,12.575v50.3h-50.3
			c-7.545,0-12.575,5.03-12.575,12.575s5.03,12.575,12.575,12.575h50.3v50.3c0,7.545,5.03,12.575,12.575,12.575
			s12.575-5.03,12.575-12.575v-50.3h50.3c7.545,0,12.575-5.03,12.575-12.575S485.391,382.277,477.846,382.277z"/>
	</g>
</g>
<g>
</g>
<g>
</g>
<g>
</g>
<g>
</g>
<g>
</g>
<g>
</g>
<g>
</g>
<g>
</g>
<g>
</g>
<g>
</g>
<g>
</g>
<g>
</g>
<g>
</g>
<g>
</g>
<g>
</g>
</svg>
