<?xml version="1.0" encoding="utf-8"?>
<!-- Svg Vector Icons : http://www.onlinewebfonts.com/icon -->
<!DOCTYPE svg PUBLIC "-//W3C//DTD SVG 1.1//EN" "http://www.w3.org/Graphics/SVG/1.1/DTD/svg11.dtd">
<svg version="1.1" xmlns="http://www.w3.org/2000/svg" xmlns:xlink="http://www.w3.org/1999/xlink" x="0px" y="0px" viewBox="0 0 1000 1000" enable-background="new 0 0 1000 1000" xml:space="preserve">
<metadata> Svg Vector Icons : http://www.onlinewebfonts.com/icon </metadata>
<g><path d="M929.2,10H70.8C37.2,10,10,37.2,10,70.7v858.6c0,33.5,27.2,60.7,60.8,60.7h858.4c33.6,0,60.8-27.2,60.8-60.7V70.7C990,37.2,962.8,10,929.2,10z M913.8,86.2v151.4H86.2V86.2H913.8z M86.2,913.8V314.1h827.7v599.7H86.2z"/><path d="M670.5,805.9c-8.6,0-17.1-3.3-23.7-9.8c-13.1-13.1-13.1-34.3,0-47.4L776,619.5L646.8,490.3c-13.1-13.1-13.1-34.3,0-47.4c13.1-13.1,34.3-13.1,47.4,0l176.6,176.6L694.2,796.1C687.6,802.6,679,805.9,670.5,805.9z"/><path d="M329.5,805.9c-8.6,0-17.1-3.3-23.7-9.8L129.3,619.5l176.6-176.6c13.1-13.1,34.3-13.1,47.4,0s13.1,34.3,0,47.4L224,619.5l129.2,129.2c13.1,13.1,13.1,34.3,0,47.4C346.7,802.6,338.1,805.9,329.5,805.9z"/><path d="M441.6,780.5c-4.7,0-9.4-1-13.9-3.1c-16.8-7.7-24.2-27.6-16.5-44.4l116.8-254.9c7.7-16.8,27.6-24.2,44.4-16.5c16.8,7.7,24.2,27.6,16.5,44.4L472.1,760.9C466.4,773.2,454.3,780.5,441.6,780.5z"/><path d="M160.5,160.3c0,17.1,13.9,31,31,31c17.1,0,31-13.9,31-31c0,0,0,0,0,0c0-17.1-13.9-31-31-31C174.4,129.3,160.5,143.1,160.5,160.3C160.5,160.3,160.5,160.3,160.5,160.3z"/><path d="M283.2,160.3c0,17.1,13.9,31,31,31c17.1,0,31-13.9,31-31c0-17.1-13.9-31-31-31C297.1,129.2,283.3,143.1,283.2,160.3C283.2,160.2,283.2,160.2,283.2,160.3L283.2,160.3z"/><path d="M406,160.3c0,17.1,13.9,31,31,31s31-13.9,31-31c0-17.1-13.9-31-31-31C419.9,129.2,406,143.1,406,160.3C406,160.2,406,160.2,406,160.3z"/></g>
</svg>