<?xml version="1.0" encoding="utf-8"?>
<!-- Svg Vector Icons : http://www.onlinewebfonts.com/icon -->
<!DOCTYPE svg PUBLIC "-//W3C//DTD SVG 1.1//EN" "http://www.w3.org/Graphics/SVG/1.1/DTD/svg11.dtd">
<svg version="1.1" xmlns="http://www.w3.org/2000/svg" xmlns:xlink="http://www.w3.org/1999/xlink" x="0px" y="0px" viewBox="0 0 1000 1000" enable-background="new 0 0 1000 1000" xml:space="preserve">
<metadata> Svg Vector Icons : http://www.onlinewebfonts.com/icon </metadata>
<g><g><path d="M500,10C229.4,10,10,229.4,10,500s219.4,490,490,490s490-219.4,490-490S770.6,10,500,10z M576.9,680.3c-37,55.5-74.6,98.3-137.9,98.3c-43.2-7-60.9-38-51.6-69.5l81.4-269.7c2-6.6-1.3-13.6-7.4-15.8c-6-2.1-17.8,5.7-27.9,16.8l-49.2,59.2c-1.3-10-0.2-26.4-0.2-33c37-55.5,97.7-99.3,138.9-99.3c39.2,4,57.7,35.3,50.9,69.7l-82,271c-1.1,6.1,2.1,12.3,7.7,14.3c6,2.1,18.7-5.7,28.9-16.8l49.2-59.2C579.1,656.2,576.9,673.6,576.9,680.3z M565.9,328.1c-31.1,0-56.4-22.7-56.4-56.1c0-33.4,25.3-56,56.4-56c31.1,0,56.4,22.7,56.4,56C622.3,305.4,597,328.1,565.9,328.1z"/></g></g>
</svg>