<?xml version="1.0" encoding="utf-8"?>
<!-- Svg Vector Icons : http://www.onlinewebfonts.com/icon -->
<!DOCTYPE svg PUBLIC "-//W3C//DTD SVG 1.1//EN" "http://www.w3.org/Graphics/SVG/1.1/DTD/svg11.dtd">
<svg version="1.1" xmlns="http://www.w3.org/2000/svg" xmlns:xlink="http://www.w3.org/1999/xlink" x="0px" y="0px" viewBox="0 0 1000 1000" enable-background="new 0 0 1000 1000" xml:space="preserve">
<metadata> Svg Vector Icons : http://www.onlinewebfonts.com/icon </metadata>
<g><g transform="translate(0.000000,511.000000) scale(0.100000,-0.100000)"><path d="M6998.1,5042.6c-59.1-28.5-118.3-107.3-280.4-376.7l-208.1-339.5H6157c-192.7,0-385.5-6.6-424.9-15.3l-72.3-17.5l-225.6,348.3c-232.2,352.6-276,396.5-409.6,396.5c-43.8,0-740.3-293.5-823.6-343.9c-26.3-17.5-63.5-67.9-85.4-109.5c-35-78.8-35-85.4,56.9-481.9l96.4-400.8l-199.3-192.7c-107.3-105.1-240.9-245.3-295.7-308.8l-100.7-120.5l-385.5,83.2c-411.8,87.6-484.1,87.6-569.5-6.6c-63.5-70.1-341.7-790.7-341.7-884.9c0-116.1,72.3-181.8,444.6-409.6l300.1-181.8v-330.7c0-181.8,6.6-365.8,13.1-409.6c13.1-78.9,17.5-81,127-94.2c149-19.7,418.4-89.8,595.8-153.3c122.7-43.8,140.2-46,131.4-15.3c-78.9,269.4-105.1,567.3-76.7,841.1c98.6,957.2,757.9,1726,1690.9,1966.9c225.6,59.1,624.2,78.9,869.6,43.8c795.1-116.1,1482.9-672.4,1765.4-1425.9c113.9-300.1,144.6-475.3,144.6-810.4c0-330.7-48.2-569.5-177.4-880.5c-188.4-449-595.8-882.7-1042.6-1106.1c-433.7-219-922.1-293.5-1379.9-214.6c-105.1,19.7-194.9,30.7-201.5,26.3c-4.4-4.4,26.3-96.4,67.9-203.7c41.6-107.3,96.4-291.3,122.7-411.8l50.4-214.6l394.3,8.8l394.3,8.8l216.8-332.9c190.6-293.5,227.8-337.3,304.4-368c65.7-26.3,107.3-30.6,157.7-15.3c144.6,39.4,751.3,313.2,799.5,357c96.4,92,96.4,162.1,2.2,549.8c-46,195-85.4,368-85.4,385.5c0,17.5,96.4,124.8,216.9,240.9c118.3,116.1,249.7,254.1,291.3,306.6l76.7,96.4l385.5-81.1c238.8-50.4,409.6-76.7,449-67.9c111.7,24.1,170.8,118.3,335.1,523.5c216.8,536.6,225.6,510.3-293.5,825.8l-311,186.2l6.6,284.7c4.4,155.5-2.2,348.3-13.1,429.3l-17.5,146.7l313.2,201.5c361.4,230,422.7,291.3,422.7,414c0,98.6-297.9,812.6-368,880.5c-83.2,85.4-166.5,83.2-573.9-15.3l-383.3-92l-39.4,46c-107.3,124.9-409.6,418.4-490.6,479.7c-52.5,37.2-94.2,78.9-94.2,94.2c0,15.3,35,188.4,78.8,385.5c83.3,383.3,83.3,460,2.2,547.6c-50.4,54.8-799.5,368-880.5,368C7094.5,5082.1,7039.7,5064.5,6998.1,5042.6z"/><path d="M5957.7,2834.8c-24.1-4.4-98.6-19.7-164.3-32.9c-65.7-13.1-214.6-67.9-328.6-122.7c-179.6-85.4-234.4-127-405.2-300.1c-330.7-332.9-464.4-676.8-444.6-1139c17.5-424.9,177.4-768.8,486.2-1060.1c300.1-278.2,637.4-407.4,1053.6-405.2c411.8,2.2,744.7,135.8,1042.6,416.2c300.1,284.7,457.8,630.8,475.3,1049.2c19.7,462.2-116.1,808.2-444.6,1139c-214.6,214.6-381.1,317.6-657.1,403C6424.2,2826,6058.5,2858.9,5957.7,2834.8z"/><path d="M2420.3,488.9c-59.1-54.8-67.9-87.6-109.5-335.1c-26.3-148.9-48.2-273.8-50.4-276c-2.2,0-67.9-24.1-146.8-52.6c-78.9-26.3-199.3-78.8-269.4-113.9l-127-63.5L1485-185.7C1320.8-67.4,1235.3-21.4,1187.2-21.4c-54.8,0-105.1-39.4-291.3-221.2c-148.9-146.8-230-245.3-238.7-287c-15.3-70.1,6.6-113.9,216.8-411.8l107.3-153.3l-78.8-168.7c-43.8-94.2-92-216.8-105.1-273.8c-30.7-116.1-10.9-105.1-354.8-162.1c-212.5-32.9-240.9-43.8-291.3-102.9c-54.8-65.7-54.8-72.3-48.2-378.9c6.6-291.3,11-315.4,56.9-365.8c30.7-32.9,87.6-59.1,142.4-67.9c50.4-8.8,177.4-28.5,280.4-48.2l188.4-35l28.5-89.8c13.1-50.4,63.5-175.2,111.7-276l85.4-184L838.9-3469c-221.2-308.8-219-324.2,37.2-584.8c216.8-219,295.7-271.6,376.7-249.7c28.5,6.6,142.4,76.7,249.7,155.5c109.5,78.9,210.3,146.8,227.8,153.3c15.3,6.6,76.7-13.1,133.6-41.6c59.1-28.5,170.8-76.7,249.7-102.9c78.9-28.5,148.9-56.9,157.7-63.5c8.8-6.6,35-129.2,59.1-269.4c24.1-140.2,54.8-276,67.9-302.3c39.4-72.3,113.9-87.6,427.1-87.6c396.5,0,394.3-2.2,457.8,383.3l46,280.4l148.9,50.4c81,26.3,203.7,78.9,273.8,113.9l127,63.5l227.8-159.9c317.6-223.4,315.4-225.6,611.1,65.7c291.3,289.1,291.3,289.1,70.1,600.1c-85.4,120.5-155.5,227.8-155.5,240.9s21.9,59.1,46,102.9c26.3,43.8,74.5,159.9,109.5,258.5l61.3,179.6l280.4,48.2c385.5,67.9,378.9,59.1,378.9,477.5s6.6,409.6-378.9,477.5l-280.4,48.2l-52.6,153.3c-30.7,85.4-81,205.9-116.1,271.6l-63.5,120.5l162.1,227.8c225.6,324.2,225.6,326.4-67.9,613.3c-289.1,287-289.1,287-606.7,61.3l-227.8-162.1l-142.4,72.3c-78.9,39.4-201.5,89.8-273.8,111.7c-72.3,21.9-133.6,41.6-138,43.8c-2.2,2.2-26.3,120.5-50.4,262.9c-48.2,278.2-76.7,348.3-164.3,381.1c-30.7,13.1-181.8,21.9-337.3,21.9C2490.4,548.1,2486,548.1,2420.3,488.9z M3116.8-623.8c203.7-41.6,512.5-188.4,687.8-328.6c146.7-118.3,315.4-337.3,411.8-530.1c199.3-411.8,201.5-915.6,2.2-1331.7c-168.7-354.8-383.3-571.7-736-744.7c-442.5-219-915.6-219-1358,0c-341.7,166.4-556.3,381.1-722.8,722.8c-219,442.4-219,915.5,0,1358c166.5,341.7,381.1,554.2,722.8,722.8C2442.2-597.5,2768.6-555.9,3116.8-623.8z"/></g></g>
</svg>