<?xml version="1.0" encoding="utf-8"?>
<!-- Svg Vector Icons : http://www.onlinewebfonts.com/icon -->
<!DOCTYPE svg PUBLIC "-//W3C//DTD SVG 1.1//EN" "http://www.w3.org/Graphics/SVG/1.1/DTD/svg11.dtd">
<svg version="1.1" xmlns="http://www.w3.org/2000/svg" xmlns:xlink="http://www.w3.org/1999/xlink" x="0px" y="0px" viewBox="0 0 1000 1000" enable-background="new 0 0 1000 1000" xml:space="preserve">
<metadata> Svg Vector Icons : http://www.onlinewebfonts.com/icon </metadata>
<g><path d="M924.3,255.1C789,20.7,489.3-59.6,255,75.7C20.7,211-59.6,510.6,75.7,745C211,979.3,510.6,1059.6,745,924.3C979.3,789,1059.6,489.4,924.3,255.1z M696,839.4c-187.4,108.2-427.2,44-535.4-143.4C52.3,508.5,116.6,268.8,304,160.6c187.4-108.2,427.2-44,535.4,143.4C947.6,491.5,883.4,731.2,696,839.4z M676.4,480.1L419.8,330.5c-23.4-13.6-42.2-2.7-42.1,24.3l1.3,297c0.1,27,19.2,38,42.6,24.5l254.6-147C699.7,515.8,699.7,493.7,676.4,480.1z"/></g>
</svg>