<?xml version="1.0" encoding="UTF-8" standalone="no"?>
<!-- Generator: Adobe Illustrator 19.1.0, SVG Export Plug-In . SVG Version: 6.00 Build 0)  -->

<svg
   xmlns:dc="http://purl.org/dc/elements/1.1/"
   xmlns:cc="http://creativecommons.org/ns#"
   xmlns:rdf="http://www.w3.org/1999/02/22-rdf-syntax-ns#"
   xmlns:svg="http://www.w3.org/2000/svg"
   xmlns="http://www.w3.org/2000/svg"
   xmlns:sodipodi="http://sodipodi.sourceforge.net/DTD/sodipodi-0.dtd"
   xmlns:inkscape="http://www.inkscape.org/namespaces/inkscape"
   version="1.1"
   id="Capa_1"
   x="0px"
   y="0px"
   viewBox="0 0 548.266 548.266"
   style="enable-background:new 0 0 548.266 548.266;"
   xml:space="preserve"
   sodipodi:docname="add_folder_dark.svg"
   inkscape:version="0.92.5 (2060ec1f9f, 2020-04-08)"><metadata
   id="metadata45"><rdf:RDF><cc:Work
       rdf:about=""><dc:format>image/svg+xml</dc:format><dc:type
         rdf:resource="http://purl.org/dc/dcmitype/StillImage" /><dc:title /></cc:Work></rdf:RDF></metadata><defs
   id="defs43" /><sodipodi:namedview
   pagecolor="#ffffff"
   bordercolor="#666666"
   borderopacity="1"
   objecttolerance="10"
   gridtolerance="10"
   guidetolerance="10"
   inkscape:pageopacity="0"
   inkscape:pageshadow="2"
   inkscape:window-width="1848"
   inkscape:window-height="1016"
   id="namedview41"
   showgrid="false"
   inkscape:zoom="1.2174908"
   inkscape:cx="208.42408"
   inkscape:cy="208.42408"
   inkscape:window-x="72"
   inkscape:window-y="27"
   inkscape:window-maximized="1"
   inkscape:current-layer="Capa_1" />
<g
   id="g8"
   style="fill:#5f8dd3">
	<g
   id="g6"
   style="fill:#5f8dd3">
		<path
   d="M487.906,279.163l15.09-108.144c0-2.515,0-7.545-2.515-10.06c-2.515-2.515-7.545-5.03-10.06-5.03h-37.725V93.054    c0-7.545-5.03-12.575-12.575-12.575H261.558l-55.33-47.785c0-2.515-5.03-2.515-7.545-2.515H62.874    c-7.545,0-12.575,5.03-12.575,12.575v113.174H12.575c-2.515,0-7.545,2.515-10.06,5.03C0,163.474,0,165.989,0,171.019l50.3,276.648    c0,5.03,5.03,10.06,12.575,10.06h238.923c2.515,0,2.515,0,5.03,0c22.635,37.725,62.874,60.359,110.659,60.359    c72.934,0,130.779-57.845,130.779-130.779C545.751,342.037,523.116,304.313,487.906,279.163z M75.449,155.929V55.33h118.204    l55.33,47.785c2.515,2.515,5.03,2.515,7.545,2.515h171.019v50.3H75.449z M414.972,492.936    c-57.845,0-105.629-47.785-105.629-105.629s47.785-105.629,105.629-105.629s105.629,47.785,105.629,105.629    S472.816,492.936,414.972,492.936z"
   id="path2"
   style="fill:#5f8dd3" />
		<path
   d="M477.846,382.277h-50.3v-50.3c0-7.545-5.03-12.575-12.575-12.575s-12.575,5.03-12.575,12.575v50.3h-50.3    c-7.545,0-12.575,5.03-12.575,12.575s5.03,12.575,12.575,12.575h50.3v50.3c0,7.545,5.03,12.575,12.575,12.575    s12.575-5.03,12.575-12.575v-50.3h50.3c7.545,0,12.575-5.03,12.575-12.575S485.391,382.277,477.846,382.277z"
   id="path4"
   style="fill:#5f8dd3" />
	</g>
</g>
<g
   id="g10"
   style="fill:#5f8dd3">
</g>
<g
   id="g12"
   style="fill:#5f8dd3">
</g>
<g
   id="g14"
   style="fill:#5f8dd3">
</g>
<g
   id="g16"
   style="fill:#5f8dd3">
</g>
<g
   id="g18"
   style="fill:#5f8dd3">
</g>
<g
   id="g20"
   style="fill:#5f8dd3">
</g>
<g
   id="g22"
   style="fill:#5f8dd3">
</g>
<g
   id="g24"
   style="fill:#5f8dd3">
</g>
<g
   id="g26"
   style="fill:#5f8dd3">
</g>
<g
   id="g28"
   style="fill:#5f8dd3">
</g>
<g
   id="g30"
   style="fill:#5f8dd3">
</g>
<g
   id="g32"
   style="fill:#5f8dd3">
</g>
<g
   id="g34"
   style="fill:#5f8dd3">
</g>
<g
   id="g36"
   style="fill:#5f8dd3">
</g>
<g
   id="g38"
   style="fill:#5f8dd3">
</g>
</svg>