<?xml version="1.0" encoding="UTF-8" standalone="no"?>
<!-- Generator: Adobe Illustrator 19.1.0, SVG Export Plug-In . SVG Version: 6.00 Build 0)  -->

<svg
   xmlns:dc="http://purl.org/dc/elements/1.1/"
   xmlns:cc="http://creativecommons.org/ns#"
   xmlns:rdf="http://www.w3.org/1999/02/22-rdf-syntax-ns#"
   xmlns:svg="http://www.w3.org/2000/svg"
   xmlns="http://www.w3.org/2000/svg"
   xmlns:sodipodi="http://sodipodi.sourceforge.net/DTD/sodipodi-0.dtd"
   xmlns:inkscape="http://www.inkscape.org/namespaces/inkscape"
   version="1.1"
   id="Capa_1"
   x="0px"
   y="0px"
   viewBox="0 0 548.266 548.266"
   style="enable-background:new 0 0 548.266 548.266;"
   xml:space="preserve"
   sodipodi:docname="add_folder.svg"
   inkscape:version="0.92.5 (2060ec1f9f, 2020-04-08)"><metadata
   id="metadata45"><rdf:RDF><cc:Work
       rdf:about=""><dc:format>image/svg+xml</dc:format><dc:type
         rdf:resource="http://purl.org/dc/dcmitype/StillImage" /></cc:Work></rdf:RDF></metadata><defs
   id="defs43" /><sodipodi:namedview
   pagecolor="#ffffff"
   bordercolor="#666666"
   borderopacity="1"
   objecttolerance="10"
   gridtolerance="10"
   guidetolerance="10"
   inkscape:pageopacity="0"
   inkscape:pageshadow="2"
   inkscape:window-width="1848"
   inkscape:window-height="1016"
   id="namedview41"
   showgrid="false"
   inkscape:zoom="1.2174908"
   inkscape:cx="19.100272"
   inkscape:cy="270.84756"
   inkscape:window-x="72"
   inkscape:window-y="27"
   inkscape:window-maximized="1"
   inkscape:current-layer="g6" />
<g
   id="g8">
	<g
   id="g6">
		<path
   d="m 487.906,279.163 15.09,-108.144 c 0,-2.515 0,-7.545 -2.515,-10.06 -2.515,-2.515 -7.545,-5.03 -10.06,-5.03 H 452.696 V 93.054 c 0,-7.545 -5.03,-12.575 -12.575,-12.575 H 261.558 l -55.33,-47.785 c 0,-2.515 -5.03,-2.515 -7.545,-2.515 H 62.874 c -7.545,0 -12.575,5.03 -12.575,12.575 V 155.928 H 12.575 c -2.515,0 -7.545,2.515 -10.06,5.03 C 0,163.474 0,165.989 0,171.019 l 50.3,276.648 c 0,5.03 5.03,10.06 12.575,10.06 h 238.923 c 2.515,0 2.515,0 5.03,0 22.635,37.725 62.874,60.359 110.659,60.359 72.934,0 130.779,-57.845 130.779,-130.779 -2.515,-45.27 -25.15,-82.994 -60.36,-108.144 z M 75.449,155.929 V 55.33 h 118.204 l 55.33,47.785 c 2.515,2.515 5.03,2.515 7.545,2.515 h 171.019 v 50.3 H 75.449 Z m 339.523,337.007 c -57.845,0 -105.629,-47.785 -105.629,-105.629 0,-57.844 47.785,-105.629 105.629,-105.629 57.844,0 105.629,47.785 105.629,105.629 0,57.844 -47.785,105.629 -105.629,105.629 z"
   id="path2"
   style="fill:#00408b;fill-opacity:1;stroke:none;stroke-opacity:1"
   inkscape:connector-curvature="0"
   inkscape:label="Folder" />
		
	<path
   style="fill:#eeeeee;fill-opacity:1;stroke:none;stroke-opacity:1"
   id="path854"
   d="M 75.449,155.929 V 55.33 h 118.204 l 55.33,47.785 c 2.515,2.515 5.03,2.515 7.545,2.515 h 171.019 v 50.3 H 75.449 Z"
   inkscape:connector-curvature="0"
   sodipodi:nodetypes="ccccscccc"
   inkscape:label="FolderBg" /><path
   style="fill:#eeeeee;fill-opacity:1;stroke:none;stroke-opacity:1"
   id="path856"
   d="m 414.972,492.936 c -57.845,0 -105.629,-47.785 -105.629,-105.629 0,-57.844 47.785,-105.629 105.629,-105.629 57.844,0 105.629,47.785 105.629,105.629 0,57.844 -47.785,105.629 -105.629,105.629 z"
   inkscape:connector-curvature="0"
   sodipodi:nodetypes="sssss"
   inkscape:label="AddBg" /><path
   d="m 477.846,382.277 h -50.3 v -50.3 c 0,-7.545 -5.03,-12.575 -12.575,-12.575 -7.545,0 -12.575,5.03 -12.575,12.575 v 50.3 h -50.3 c -7.545,0 -12.575,5.03 -12.575,12.575 0,7.545 5.03,12.575 12.575,12.575 h 50.3 v 50.3 c 0,7.545 5.03,12.575 12.575,12.575 7.545,0 12.575,-5.03 12.575,-12.575 v -50.3 h 50.3 c 7.545,0 12.575,-5.03 12.575,-12.575 0,-7.545 -5.03,-12.575 -12.575,-12.575 z"
   id="path4"
   style="fill:#00408b;fill-opacity:1"
   inkscape:connector-curvature="0"
   inkscape:label="Add" /></g>
</g>















</svg>