<?xml version="1.0" encoding="utf-8"?>
<!-- Svg Vector Icons : http://www.onlinewebfonts.com/icon -->
<!DOCTYPE svg PUBLIC "-//W3C//DTD SVG 1.1//EN" "http://www.w3.org/Graphics/SVG/1.1/DTD/svg11.dtd">
<svg version="1.1" xmlns="http://www.w3.org/2000/svg" xmlns:xlink="http://www.w3.org/1999/xlink" x="0px" y="0px" viewBox="0 0 1000 1000" enable-background="new 0 0 1000 1000" xml:space="preserve">
<metadata> Svg Vector Icons : http://www.onlinewebfonts.com/icon </metadata>
<g><g transform="translate(0.000000,460.000000) scale(0.100000,-0.100000)"><path d="M147.9,3954.9l-47.9-46V255.4c1.9-2841.6,5.7-3661.2,24.9-3684.2c13.4-17.2,42.1-40.2,65.1-51.7c30.6-17.2,748.7-23,2837.8-23h2795.7l80.4-151.3c233.6-440.4,662.5-825.3,1112.5-997.6c373.4-145.5,695.1-181.9,1068.5-124.5c698.9,105.3,1309.8,566.8,1618,1221.7c271.9,582.1,262.3,1217.9-28.7,1803.8l-95.7,191.5v2730.6v2730.6l-49.8,51.7l-51.7,49.8H4835.4H193.8L147.9,3954.9z M1727.6,2940v-737.2l-645.3,3.8l-647.2,5.7l-5.7,733.4l-3.8,731.5h651h651V2940z M7619.6,1557.5l-3.8-2119.8l-181.9-32.5C7008.8-669.5,6645-855.2,6331-1152c-413.6-392.5-643.4-884.7-672.1-1432.3c-9.6-195.3,7.7-398.3,46-549.6l9.6-44H3883.8H2053.2V249.7v3427.6h2786.1h2786.1L7619.6,1557.5z M9249.2,2945.8l-5.7-733.4l-645.3-5.7l-647.2-3.8V2940v737.2H8602H9253L9249.2,2945.8z M1727.6,1149.6V422h-651h-651v727.6v727.6h651h651V1149.6z M9253,1149.6V422H8602h-651.1v727.6v727.6H8602H9253V1149.6z M1727.6-650.3V-1378h-651h-651v727.6V77.3h651h651V-650.3z M9253-537.3V-1152l-90,74.7C8845.1-815,8418.1-621.6,8067.7-581.4L7950.9-568v321.7V77.3H8602H9253V-537.3z M8247.7-954.8c331.3-86.2,670.2-300.6,892.3-563c174.3-206.8,254.7-338.9,321.7-520.8c206.8-572.5,124.5-1227.4-216.4-1700.4c-97.6-137.9-304.5-342.8-438.5-432.8c-145.5-97.7-394.5-208.7-580.2-254.7c-243.2-61.3-653-61.3-898.1,0c-804.2,201.1-1338.5,900-1336.6,1746.3c0,511.3,176.2,934.5,524.7,1277.2c208.7,203,392.5,315.9,660.6,406c247,82.3,344.7,95.7,649.1,90C8021.8-912.7,8136.6-926.1,8247.7-954.8z M1727.6-2440.7v-737.2h-651h-651v737.2v737.2h651h651V-2440.7z"/><path d="M4073.3,1503.9l-47.9-46V249.7V-958.6l49.8-46c101.5-93.8-24.9-164.7,1754,967c233.6,147.5,285.3,189.6,302.5,239.4c15.3,46,15.3,76.6-1.9,113c-17.2,36.4-285.3,216.4-957.4,643.4C4169.1,1595.8,4165.2,1597.7,4073.3,1503.9z M5036.5,661.4C5519,355,5664.6,253.5,5647.3,236.3C5628.2,219,5065.2-141,4423.7-548.8l-72.8-44v842.5c0,710.4,3.8,842.5,26.8,829.1C4391.2,1071.1,4688,883.5,5036.5,661.4z"/><path d="M7667.5-1594.3c-40.2-42.1-42.1-63.2-46-482.5l-5.7-440.4l-442.3-5.7l-442.3-3.8l-44-47.9c-61.3-65.1-61.3-166.6-3.8-225.9c42.1-40.2,57.5-42.1,492.1-47.9l450-5.7v-436.6c0-492.1,3.8-509.3,136-530.4c55.5-9.6,78.5-1.9,124.5,36.4l55.5,47.9l5.7,442.3l5.7,442.3h415.5c451.9,0,492.1,7.7,536.2,103.4c32.6,63.2,17.2,132.1-38.3,183.8c-40.2,36.4-67,38.3-476.8,38.3h-436.6l-5.7,438.5c-5.7,434.7-5.7,440.4-51.7,488.3C7834.1-1535,7726.9-1531.1,7667.5-1594.3z"/></g></g>
</svg>
