<?xml version="1.0" encoding="UTF-8" standalone="no"?>
<!-- Svg Vector Icons : http://www.onlinewebfonts.com/icon -->

<svg
   xmlns:dc="http://purl.org/dc/elements/1.1/"
   xmlns:cc="http://creativecommons.org/ns#"
   xmlns:rdf="http://www.w3.org/1999/02/22-rdf-syntax-ns#"
   xmlns:svg="http://www.w3.org/2000/svg"
   xmlns="http://www.w3.org/2000/svg"
   xmlns:sodipodi="http://sodipodi.sourceforge.net/DTD/sodipodi-0.dtd"
   xmlns:inkscape="http://www.inkscape.org/namespaces/inkscape"
   version="1.1"
   x="0px"
   y="0px"
   viewBox="0 0 1000 1000"
   enable-background="new 0 0 1000 1000"
   xml:space="preserve"
   id="svg10"
   sodipodi:docname="info_dark.svg"
   inkscape:version="0.92.5 (2060ec1f9f, 2020-04-08)"><defs
   id="defs14" /><sodipodi:namedview
   pagecolor="#ffffff"
   bordercolor="#666666"
   borderopacity="1"
   objecttolerance="10"
   gridtolerance="10"
   guidetolerance="10"
   inkscape:pageopacity="0"
   inkscape:pageshadow="2"
   inkscape:window-width="1848"
   inkscape:window-height="1016"
   id="namedview12"
   showgrid="false"
   inkscape:zoom="0.472"
   inkscape:cx="500"
   inkscape:cy="500"
   inkscape:window-x="72"
   inkscape:window-y="27"
   inkscape:window-maximized="1"
   inkscape:current-layer="svg10" />
<metadata
   id="metadata2"> Svg Vector Icons : http://www.onlinewebfonts.com/icon <rdf:RDF><cc:Work
     rdf:about=""><dc:format>image/svg+xml</dc:format><dc:type
       rdf:resource="http://purl.org/dc/dcmitype/StillImage" /><dc:title /></cc:Work></rdf:RDF></metadata>
<g
   id="g8"
   style="fill:#5f8dd3"><g
     id="g6"
     style="fill:#5f8dd3"><path
       d="M500,10C229.4,10,10,229.4,10,500s219.4,490,490,490s490-219.4,490-490S770.6,10,500,10z M576.9,680.3c-37,55.5-74.6,98.3-137.9,98.3c-43.2-7-60.9-38-51.6-69.5l81.4-269.7c2-6.6-1.3-13.6-7.4-15.8c-6-2.1-17.8,5.7-27.9,16.8l-49.2,59.2c-1.3-10-0.2-26.4-0.2-33c37-55.5,97.7-99.3,138.9-99.3c39.2,4,57.7,35.3,50.9,69.7l-82,271c-1.1,6.1,2.1,12.3,7.7,14.3c6,2.1,18.7-5.7,28.9-16.8l49.2-59.2C579.1,656.2,576.9,673.6,576.9,680.3z M565.9,328.1c-31.1,0-56.4-22.7-56.4-56.1c0-33.4,25.3-56,56.4-56c31.1,0,56.4,22.7,56.4,56C622.3,305.4,597,328.1,565.9,328.1z"
       id="path4"
       style="fill:#5f8dd3" /></g></g>
</svg>