<?xml version="1.0" encoding="UTF-8" standalone="no"?>
<!-- Svg Vector Icons : http://www.onlinewebfonts.com/icon -->

<svg
   xmlns:dc="http://purl.org/dc/elements/1.1/"
   xmlns:cc="http://creativecommons.org/ns#"
   xmlns:rdf="http://www.w3.org/1999/02/22-rdf-syntax-ns#"
   xmlns:svg="http://www.w3.org/2000/svg"
   xmlns="http://www.w3.org/2000/svg"
   xmlns:sodipodi="http://sodipodi.sourceforge.net/DTD/sodipodi-0.dtd"
   xmlns:inkscape="http://www.inkscape.org/namespaces/inkscape"
   version="1.1"
   x="0px"
   y="0px"
   viewBox="0 0 1000 1000"
   enable-background="new 0 0 1000 1000"
   xml:space="preserve"
   id="svg10"
   sodipodi:docname="info.svg"
   inkscape:version="0.92.5 (2060ec1f9f, 2020-04-08)"><defs
   id="defs14" /><sodipodi:namedview
   pagecolor="#ffffff"
   bordercolor="#666666"
   borderopacity="1"
   objecttolerance="10"
   gridtolerance="10"
   guidetolerance="10"
   inkscape:pageopacity="0"
   inkscape:pageshadow="2"
   inkscape:window-width="1848"
   inkscape:window-height="1016"
   id="namedview12"
   showgrid="false"
   inkscape:zoom="0.472"
   inkscape:cx="61.440678"
   inkscape:cy="495.76271"
   inkscape:window-x="72"
   inkscape:window-y="27"
   inkscape:window-maximized="1"
   inkscape:current-layer="g6" />
<metadata
   id="metadata2"> Svg Vector Icons : http://www.onlinewebfonts.com/icon <rdf:RDF><cc:Work
     rdf:about=""><dc:format>image/svg+xml</dc:format><dc:type
       rdf:resource="http://purl.org/dc/dcmitype/StillImage" /></cc:Work></rdf:RDF></metadata>
<g
   id="g8"><g
     id="g6"><path
       d="M 500,10 C 229.4,10 10,229.4 10,500 10,770.6 229.4,990 500,990 770.6,990 990,770.6 990,500 990,229.4 770.6,10 500,10 Z m 76.9,670.3 c -37,55.5 -74.6,98.3 -137.9,98.3 -43.2,-7 -60.9,-38 -51.6,-69.5 l 81.4,-269.7 c 2,-6.6 -1.3,-13.6 -7.4,-15.8 -6,-2.1 -17.8,5.7 -27.9,16.8 l -49.2,59.2 c -1.3,-10 -0.2,-26.4 -0.2,-33 37,-55.5 97.7,-99.3 138.9,-99.3 39.2,4 57.7,35.3 50.9,69.7 l -82,271 c -1.1,6.1 2.1,12.3 7.7,14.3 6,2.1 18.7,-5.7 28.9,-16.8 l 49.2,-59.2 c 1.4,9.9 -0.8,27.3 -0.8,34 z m -11,-352.2 c -31.1,0 -56.4,-22.7 -56.4,-56.1 0,-33.4 25.3,-56 56.4,-56 31.1,0 56.4,22.7 56.4,56 0,33.4 -25.3,56.1 -56.4,56.1 z"
       id="path4"
       inkscape:connector-curvature="0"
       inkscape:label="bg"
       style="fill:#00408b;fill-opacity:1" /><path
       inkscape:connector-curvature="0"
       id="path821"
       d="m 576.9,680.3 c -37,55.5 -74.6,98.3 -137.9,98.3 -43.2,-7 -60.9,-38 -51.6,-69.5 l 81.4,-269.7 c 2,-6.6 -1.3,-13.6 -7.4,-15.8 -6,-2.1 -17.8,5.7 -27.9,16.8 l -49.2,59.2 c -1.3,-10 -0.2,-26.4 -0.2,-33 37,-55.5 97.7,-99.3 138.9,-99.3 39.2,4 57.7,35.3 50.9,69.7 l -82,271 c -1.1,6.1 2.1,12.3 7.7,14.3 6,2.1 18.7,-5.7 28.9,-16.8 l 49.2,-59.2 c 1.4,9.9 -0.8,27.3 -0.8,34 z m -11,-352.2 c -31.1,0 -56.4,-22.7 -56.4,-56.1 0,-33.4 25.3,-56 56.4,-56 31.1,0 56.4,22.7 56.4,56 0,33.4 -25.3,56.1 -56.4,56.1 z"
       sodipodi:nodetypes="cccccccccccccccsssss"
       inkscape:label="i"
       style="fill:#eeeeee;fill-opacity:1" /></g></g>
</svg>