<?xml version="1.0" encoding="UTF-8" standalone="no"?>
<!-- Svg Vector Icons : http://www.onlinewebfonts.com/icon -->

<svg
   xmlns:dc="http://purl.org/dc/elements/1.1/"
   xmlns:cc="http://creativecommons.org/ns#"
   xmlns:rdf="http://www.w3.org/1999/02/22-rdf-syntax-ns#"
   xmlns:svg="http://www.w3.org/2000/svg"
   xmlns="http://www.w3.org/2000/svg"
   xmlns:sodipodi="http://sodipodi.sourceforge.net/DTD/sodipodi-0.dtd"
   xmlns:inkscape="http://www.inkscape.org/namespaces/inkscape"
   version="1.1"
   x="0px"
   y="0px"
   viewBox="0 0 1000 1000"
   enable-background="new 0 0 1000 1000"
   xml:space="preserve"
   id="svg44"
   sodipodi:docname="maximize.svg"
   inkscape:version="0.92.5 (2060ec1f9f, 2020-04-08)"><defs
   id="defs48" /><sodipodi:namedview
   pagecolor="#ffffff"
   bordercolor="#666666"
   borderopacity="1"
   objecttolerance="10"
   gridtolerance="10"
   guidetolerance="10"
   inkscape:pageopacity="0"
   inkscape:pageshadow="2"
   inkscape:window-width="1848"
   inkscape:window-height="1014"
   id="namedview46"
   showgrid="false"
   inkscape:zoom="0.6675088"
   inkscape:cx="909.21766"
   inkscape:cy="486.50947"
   inkscape:window-x="72"
   inkscape:window-y="29"
   inkscape:window-maximized="1"
   inkscape:current-layer="svg44" />
<metadata
   id="metadata26"> Svg Vector Icons : http://www.onlinewebfonts.com/icon <rdf:RDF><cc:Work
     rdf:about=""><dc:format>image/svg+xml</dc:format><dc:type
       rdf:resource="http://purl.org/dc/dcmitype/StillImage" /><dc:title></dc:title></cc:Work></rdf:RDF></metadata>
<g
   id="g42"><g
     transform="translate(0.000000,512.000000) scale(0.100000,-0.100000)"
     id="g40"><path
       d="m 9123.2348,4987 c 256.4,-61.2 533.9,-279.4 658.2,-516.6 124.4,-237.3 118.7,-80.4 118.7,-3126.7 0,-3046.3 5.7,-2889.4 -118.6,-3126.7 -82.3,-156.9 -281.3,-354 -432.4,-430.5 -241.2,-122.5 -107.3,-116.7 -2901,-116.7 h -2541.1 l -65,65.1 c -45.9,45.9 -65.1,82.3 -65.1,124.4 0,74.6 44,162.6 89.9,185.6 19.1,9.6 1184.5,21 2589,26.8 l 2554.5,9.6 114.8,53.4 c 128.2,61.2 202.8,122.5 269.8,229.6 105.2,162.7 103.3,109.1 103.3,2447.4 v 2158.4 h -4496.7 -4496.70003 l 3.8,-2204.3 5.7,-2206.3 49.7,-105.2 c 26.8,-59.3 76.5,-137.8 111,-176 80.4,-93.8 262.1,-181.8 399.90003,-197.1 135.9,-15.3 191.3,-42.1 225.8,-109.1 45.9,-89.9 34.5,-164.6 -38.3,-237.3 -55.5,-55.5 -78.4,-65.1 -158.8,-65.1 -246.80003,1.9 -503.20003,112.9 -694.60003,306.2 -141.6,141.6 -235.4,302.3 -277.5,480.3 -42.099999,185.6 -42.099999,5589.3 0,5774.9 42.1,178 135.8,338.7 277.5,480.3 141.6,141.6 302.3,235.4 480.3,277.5 180.00003,42.1 8057.80003,40.2 8233.90003,-1.9 z M 977.43477,4587.1 c -197.1,-51.7 -319.6,-156.9 -413.3,-354 -47.8,-99.5 -49.7,-124.4 -55.5,-472.6 l -7.7,-369.3 h 4500.60003 4500.6 l -7.7,369.3 c -5.7,348.3 -7.7,373.1 -55.5,472.6 -89.9,189.4 -222,304.2 -417.1,355.9 -68.9,19.1 -966.3,24.9 -4010.7,24.9 -3413.7,1.9 -3938,-2 -4033.70003,-26.8 z"
       id="path28"
       inkscape:connector-curvature="0" /><path
       d="M978.3,4139.3c-44-45.9-55.5-72.7-55.5-139.7c1.9-191.3,202.8-275.5,336.8-141.6s49.8,334.9-141.6,336.8C1051,4194.8,1024.2,4183.3,978.3,4139.3z"
       id="path30" /><path
       d="M1806.9,4147c-72.7-61.2-91.9-137.8-53.6-225.8c28.7-72.7,112.9-128.2,187.5-128.2c74.6,0,162.6,67,187.5,143.5C2191.5,4125.9,1960,4277.1,1806.9,4147z"
       id="path32" /><path
       d="M2633.5,4160.4c-105.2-84.2-112.9-208.6-19.1-302.3c74.6-74.6,153.1-86.1,241.1-32.5c174.1,101.4,101.4,369.3-99.5,369.3C2706.2,4194.8,2656.5,4181.4,2633.5,4160.4z"
       id="path34" /><path
       d="m 1672.2,-3099.3987 c -59.3,61.2 -74.6,158.8 -34.4,237.3 11.5,23 677.4,698.4 1479.1,1500.2 L 4573.1,98.101311 h -570.2 c -449.7,0 -583.6,5.699999 -635.3,26.799999 -67,28.7 -124.4,112.9 -124.4,183.7 0,70.8 57.4,155 124.4,183.7 99.5,40.2 1708.7,40.2 1796.8,-1.9 118.6,-57.4 116.7,-32.5 122.5,-956.7 7.7,-928.00001 3.8,-962.50001 -97.6,-1023.70001 -74.6,-45.9 -130.1,-47.8 -206.7,-7.7 -105.2,53.6 -112.9,99.5 -112.9,729.10001 v 570.2 L 3411.6,-1654.6987 c -803.7,-801.7 -1479.1,-1467.6 -1502.1,-1479.1 -78.4,-40.2 -176,-24.9 -237.3,34.4 z"
       id="path36"
       inkscape:connector-curvature="0" /><path
       d="m 168.3,-3619.9 -65.1,-65 v -482.2 -482.2 l 65.1,-65 65,-65.1 H 1940.1 3647 l 65,65.1 65.1,65 v 482.2 482.2 l -65.1,65 -65,65.1 H 1940.2 233.3 Z m 3197.4,-547.3 v -200.9 H 1940.2 514.6 l -5.7,179.9 c -1.9,99.5 0,191.3 3.8,206.7 9.6,21 262.1,24.9 1431.3,21 l 1421.7,-5.7 z"
       id="path38"
       inkscape:connector-curvature="0" /></g></g>
</svg>
