<?xml version="1.0" encoding="UTF-8" standalone="no"?>
<!-- Svg Vector Icons : http://www.onlinewebfonts.com/icon -->

<svg
   xmlns:dc="http://purl.org/dc/elements/1.1/"
   xmlns:cc="http://creativecommons.org/ns#"
   xmlns:rdf="http://www.w3.org/1999/02/22-rdf-syntax-ns#"
   xmlns:svg="http://www.w3.org/2000/svg"
   xmlns="http://www.w3.org/2000/svg"
   xmlns:sodipodi="http://sodipodi.sourceforge.net/DTD/sodipodi-0.dtd"
   xmlns:inkscape="http://www.inkscape.org/namespaces/inkscape"
   version="1.1"
   x="0px"
   y="0px"
   viewBox="0 0 1000 1000"
   enable-background="new 0 0 1000 1000"
   xml:space="preserve"
   id="svg20"
   sodipodi:docname="minimize.svg"
   inkscape:version="0.92.5 (2060ec1f9f, 2020-04-08)"><defs
   id="defs24" /><sodipodi:namedview
   pagecolor="#ffffff"
   bordercolor="#666666"
   borderopacity="1"
   objecttolerance="10"
   gridtolerance="10"
   guidetolerance="10"
   inkscape:pageopacity="0"
   inkscape:pageshadow="2"
   inkscape:window-width="1848"
   inkscape:window-height="1016"
   id="namedview22"
   showgrid="false"
   inkscape:zoom="0.6675088"
   inkscape:cx="239.32928"
   inkscape:cy="494.00756"
   inkscape:window-x="72"
   inkscape:window-y="27"
   inkscape:window-maximized="1"
   inkscape:current-layer="g16" />
<metadata
   id="metadata2"> Svg Vector Icons : http://www.onlinewebfonts.com/icon <rdf:RDF><cc:Work
     rdf:about=""><dc:format>image/svg+xml</dc:format><dc:type
       rdf:resource="http://purl.org/dc/dcmitype/StillImage" /></cc:Work></rdf:RDF></metadata>
<g
   id="g18"
   style="fill:#00408b;fill-opacity:1"><g
     transform="matrix(0.1,0,0,-0.1,0,512)"
     id="g16"
     style="fill:#00408b;fill-opacity:1"><path
       d="M 876.9,4987 C 620.5,4925.8 343,4707.6 218.7,4470.4 94.3,4233.1 100,4390 100,1343.7 c 0,-3046.3 -5.7,-2889.4 118.6,-3126.7 82.3,-156.9 281.3,-354 432.4,-430.5 241.2,-122.5 107.3,-116.7 2901,-116.7 h 2541.1 l 65,65.1 c 45.9,45.9 65.1,82.3 65.1,124.4 0,74.6 -44,162.6 -89.9,185.6 -19.1,9.6 -1184.5,21 -2589,26.8 l -2554.5,9.6 -114.8,53.4 c -128.2,61.2 -202.8,122.5 -269.8,229.6 C 500,-1473 501.9,-1526.6 501.9,811.7 v 2158.4 h 4496.7 4496.7 l -3.8,-2204.3 -5.7,-2206.3 -49.7,-105.2 c -26.8,-59.3 -76.5,-137.8 -111,-176 -80.4,-93.8 -262.1,-181.8 -399.9,-197.1 -135.9,-15.3 -191.3,-42.1 -225.8,-109.1 -45.9,-89.9 -34.5,-164.6 38.3,-237.3 55.5,-55.5 78.4,-65.1 158.8,-65.1 246.8,1.9 503.2,112.9 694.6,306.2 141.6,141.6 235.4,302.3 277.5,480.3 42.1,185.6 42.1,5589.3 0,5774.9 -42.1,178 -135.8,338.7 -277.5,480.3 -141.6,141.6 -302.3,235.4 -480.3,277.5 -180,42.1 -8057.8,40.2 -8233.9,-1.9 z"
       id="path4"
       style="fill:#00408b;fill-opacity:1"
       inkscape:connector-curvature="0"
       sodipodi:nodetypes="ccsccsccscccccsccccccccccccccccc"
       inkscape:label="window" /><path
       d="m 4652.2,465.4 c -59.3,-61.2 -74.6,-158.8 -34.4,-237.3 11.5,-23 677.4,-698.4 1479.1,-1500.2 l 1456.2,-1460 h -570.2 c -449.7,0 -583.6,-5.7 -635.3,-26.8 -67,-28.7 -124.4,-112.9 -124.4,-183.7 0,-70.8 57.4,-155 124.4,-183.7 99.5,-40.2 1708.7,-40.2 1796.8,1.9 118.6,57.4 116.7,32.5 122.5,956.7 7.7,928 3.8,962.5 -97.6,1023.7 -74.6,45.9 -130.1,47.8 -206.7,7.7 -105.2,-53.6 -112.9,-99.5 -112.9,-729.1 v -570.2 L 6391.6,-979.3 C 5587.9,-177.6 4912.5,488.3 4889.5,499.8 c -78.4,40.2 -176,24.9 -237.3,-34.4 z"
       id="path12"
       style="fill:#00408b;fill-opacity:1"
       inkscape:connector-curvature="0"
       inkscape:label="arrow" /><path
       d="m 6288.3,-3619.9 -65.1,-65 v -482.2 -482.2 l 65.1,-65 65,-65.1 H 8060.1 9767 l 65,65.1 65.1,65 v 482.2 482.2 l -65.1,65 -65,65.1 H 8060.2 6353.3 Z m 3197.4,-547.3 v -200.9 H 8060.2 6634.6 l -5.7,179.9 c -1.9,99.5 0,191.3 3.8,206.7 9.6,21 262.1,24.9 1431.3,21 l 1421.7,-5.7 z"
       id="path14"
       style="fill:#00408b;fill-opacity:1"
       inkscape:connector-curvature="0"
       inkscape:label="littleWindow" /><path
       d="M 8589.6984,4280.2866 C 8518.5862,4206.0913 8500,4162.7702 8500,4054.4676 c 3.0708,-309.2282 327.763,-445.3339 544.3322,-228.8903 216.5692,216.4436 80.4862,541.3514 -228.8523,544.4227 -108.2846,0 -151.5984,-18.5892 -225.7815,-89.7134 z"
       id="path6"
       style="fill:#eeeeee;fill-opacity:1;stroke-width:1.61632264"
       inkscape:connector-curvature="0"
       inkscape:label="ball3" /><path
       inkscape:label="ball2"
       inkscape:connector-curvature="0"
       style="fill:#eeeeee;fill-opacity:1;stroke-width:1.61632264"
       id="path822"
       d="m 7644.8165,4280.2866 c -71.1122,-74.1953 -89.6984,-117.5164 -89.6984,-225.819 3.0708,-309.2282 327.763,-445.3339 544.3322,-228.8903 216.5692,216.4436 80.4862,541.3514 -228.8523,544.4227 -108.2846,0 -151.5984,-18.5892 -225.7815,-89.7134 z" /><path
       d="m 6699.9346,4280.2866 c -71.1122,-74.1953 -89.6984,-117.5164 -89.6984,-225.819 3.0708,-309.2282 327.763,-445.3339 544.3322,-228.8903 216.5692,216.4436 80.4862,541.3514 -228.8523,544.4227 -108.2846,0 -151.5984,-18.5892 -225.7815,-89.7134 z"
       id="path824"
       style="fill:#eeeeee;fill-opacity:1;stroke-width:1.61632264"
       inkscape:connector-curvature="0"
       inkscape:label="ball1" /></g></g>
</svg>