<?xml version="1.0" encoding="UTF-8" standalone="no"?>
<!-- Svg Vector Icons : http://www.onlinewebfonts.com/icon -->

<svg
   xmlns:dc="http://purl.org/dc/elements/1.1/"
   xmlns:cc="http://creativecommons.org/ns#"
   xmlns:rdf="http://www.w3.org/1999/02/22-rdf-syntax-ns#"
   xmlns:svg="http://www.w3.org/2000/svg"
   xmlns="http://www.w3.org/2000/svg"
   xmlns:sodipodi="http://sodipodi.sourceforge.net/DTD/sodipodi-0.dtd"
   xmlns:inkscape="http://www.inkscape.org/namespaces/inkscape"
   version="1.1"
   x="0px"
   y="0px"
   viewBox="0 0 1000 1000"
   enable-background="new 0 0 1000 1000"
   xml:space="preserve"
   id="svg20"
   sodipodi:docname="minimize_dark.svg"
   inkscape:version="0.92.5 (2060ec1f9f, 2020-04-08)"><defs
   id="defs24" /><sodipodi:namedview
   pagecolor="#ffffff"
   bordercolor="#666666"
   borderopacity="1"
   objecttolerance="10"
   gridtolerance="10"
   guidetolerance="10"
   inkscape:pageopacity="0"
   inkscape:pageshadow="2"
   inkscape:window-width="1848"
   inkscape:window-height="1016"
   id="namedview22"
   showgrid="false"
   inkscape:zoom="0.6675088"
   inkscape:cx="500"
   inkscape:cy="500"
   inkscape:window-x="72"
   inkscape:window-y="27"
   inkscape:window-maximized="1"
   inkscape:current-layer="svg20" />
<metadata
   id="metadata2"> Svg Vector Icons : http://www.onlinewebfonts.com/icon <rdf:RDF><cc:Work
     rdf:about=""><dc:format>image/svg+xml</dc:format><dc:type
       rdf:resource="http://purl.org/dc/dcmitype/StillImage" /><dc:title /></cc:Work></rdf:RDF></metadata>
<g
   id="g18"
   style="fill:#5f8dd3"><g
     transform="translate(0.000000,512.000000) scale(0.100000,-0.100000)"
     id="g16"
     style="fill:#5f8dd3"><path
       d="M876.9,4987c-256.4-61.2-533.9-279.4-658.2-516.6C94.3,4233.1,100,4390,100,1343.7c0-3046.3-5.7-2889.4,118.6-3126.7c82.3-156.9,281.3-354,432.4-430.5C892.2-2336,758.3-2330.2,3552-2330.2h2541.1l65,65.1c45.9,45.9,65.1,82.3,65.1,124.4c0,74.6-44,162.6-89.9,185.6c-19.1,9.6-1184.5,21-2589,26.8l-2554.5,9.6L875-1865.3c-128.2,61.2-202.8,122.5-269.8,229.6C500-1473,501.9-1526.6,501.9,811.7v2158.4h4496.7h4496.7l-3.8-2204.3l-5.7-2206.3l-49.7-105.2c-26.8-59.3-76.5-137.8-111-176c-80.4-93.8-262.1-181.8-399.9-197.1c-135.9-15.3-191.3-42.1-225.8-109.1c-45.9-89.9-34.5-164.6,38.3-237.3c55.5-55.5,78.4-65.1,158.8-65.1c246.8,1.9,503.2,112.9,694.6,306.2c141.6,141.6,235.4,302.3,277.5,480.3c42.1,185.6,42.1,5589.3,0,5774.9c-42.1,178-135.8,338.7-277.5,480.3c-141.6,141.6-302.3,235.4-480.3,277.5C8930.8,5031,1053,5029.1,876.9,4987z M9022.7,4587.1c197.1-51.7,319.6-156.9,413.3-354c47.8-99.5,49.7-124.4,55.5-472.6l7.7-369.3H4998.6H498l7.7,369.3c5.7,348.3,7.7,373.1,55.5,472.6c89.9,189.4,222,304.2,417.1,355.9c68.9,19.1,966.3,24.9,4010.7,24.9C8402.7,4615.8,8927,4611.9,9022.7,4587.1z"
       id="path4"
       style="fill:#5f8dd3" /><path
       d="M978.3,4139.3c-44-45.9-55.5-72.7-55.5-139.7c1.9-191.3,202.8-275.5,336.8-141.6s49.8,334.9-141.6,336.8C1051,4194.8,1024.2,4183.3,978.3,4139.3z"
       id="path6"
       style="fill:#5f8dd3" /><path
       d="M1806.9,4147c-72.7-61.2-91.9-137.8-53.6-225.8c28.7-72.7,112.9-128.2,187.5-128.2c74.6,0,162.6,67,187.5,143.5C2191.5,4125.9,1960,4277.1,1806.9,4147z"
       id="path8"
       style="fill:#5f8dd3" /><path
       d="M2633.5,4160.4c-105.2-84.2-112.9-208.6-19.1-302.3c74.6-74.6,153.1-86.1,241.1-32.5c174.1,101.4,101.4,369.3-99.5,369.3C2706.2,4194.8,2656.5,4181.4,2633.5,4160.4z"
       id="path10"
       style="fill:#5f8dd3" /><path
       d="M4652.2,465.4c-59.3-61.2-74.6-158.8-34.4-237.3c11.5-23,677.4-698.4,1479.1-1500.2l1456.2-1460h-570.2c-449.7,0-583.6-5.7-635.3-26.8c-67-28.7-124.4-112.9-124.4-183.7c0-70.8,57.4-155,124.4-183.7c99.5-40.2,1708.7-40.2,1796.8,1.9c118.6,57.4,116.7,32.5,122.5,956.7c7.7,928,3.8,962.5-97.6,1023.7c-74.6,45.9-130.1,47.8-206.7,7.7c-105.2-53.6-112.9-99.5-112.9-729.1v-570.2L6391.6-979.3C5587.9-177.6,4912.5,488.3,4889.5,499.8C4811.1,540,4713.5,524.7,4652.2,465.4z"
       id="path12"
       style="fill:#5f8dd3" /><path
       d="M6288.3-3619.9l-65.1-65v-482.2v-482.2l65.1-65l65-65.1h1706.8H9767l65,65.1l65.1,65v482.2v482.2l-65.1,65l-65,65.1H8060.2H6353.3L6288.3-3619.9z M9485.7-4167.2v-200.9H8060.2H6634.6l-5.7,179.9c-1.9,99.5,0,191.3,3.8,206.7c9.6,21,262.1,24.9,1431.3,21l1421.7-5.7V-4167.2z"
       id="path14"
       style="fill:#5f8dd3" /></g></g>
</svg>