<?xml version="1.0" encoding="UTF-8" standalone="no"?>
<!-- Svg Vector Icons : http://www.onlinewebfonts.com/icon -->

<svg
   xmlns:dc="http://purl.org/dc/elements/1.1/"
   xmlns:cc="http://creativecommons.org/ns#"
   xmlns:rdf="http://www.w3.org/1999/02/22-rdf-syntax-ns#"
   xmlns:svg="http://www.w3.org/2000/svg"
   xmlns="http://www.w3.org/2000/svg"
   xmlns:sodipodi="http://sodipodi.sourceforge.net/DTD/sodipodi-0.dtd"
   xmlns:inkscape="http://www.inkscape.org/namespaces/inkscape"
   version="1.1"
   x="0px"
   y="0px"
   viewBox="0 0 1000 1000"
   enable-background="new 0 0 1000 1000"
   xml:space="preserve"
   id="svg14"
   sodipodi:docname="settings_dark.svg"
   inkscape:version="0.92.5 (2060ec1f9f, 2020-04-08)"><defs
   id="defs18" /><sodipodi:namedview
   pagecolor="#ffffff"
   bordercolor="#666666"
   borderopacity="1"
   objecttolerance="10"
   gridtolerance="10"
   guidetolerance="10"
   inkscape:pageopacity="0"
   inkscape:pageshadow="2"
   inkscape:window-width="1848"
   inkscape:window-height="1016"
   id="namedview16"
   showgrid="false"
   inkscape:zoom="0.472"
   inkscape:cx="-222.45762"
   inkscape:cy="487.28813"
   inkscape:window-x="72"
   inkscape:window-y="27"
   inkscape:window-maximized="1"
   inkscape:current-layer="g10" />
<metadata
   id="metadata2"> Svg Vector Icons : http://www.onlinewebfonts.com/icon <rdf:RDF><cc:Work
     rdf:about=""><dc:format>image/svg+xml</dc:format><dc:type
       rdf:resource="http://purl.org/dc/dcmitype/StillImage" /><dc:title /></cc:Work></rdf:RDF></metadata>
<g
   id="g12"
   style="fill:#4bb3fd;fill-opacity:1"><g
     transform="matrix(0.1,0,0,-0.1,0,511)"
     id="g10"
     style="fill:#4bb3fd;fill-opacity:1"><path
       d="M 6998.1,5042.6 C 6939,5014.1 6879.8,4935.3 6717.7,4665.9 L 6509.6,4326.4 H 6157 c -192.7,0 -385.5,-6.6 -424.9,-15.3 l -72.3,-17.5 -225.6,348.3 c -232.2,352.6 -276,396.5 -409.6,396.5 -43.8,0 -740.3,-293.5 -823.6,-343.9 -26.3,-17.5 -63.5,-67.9 -85.4,-109.5 -35,-78.8 -35,-85.4 56.9,-481.9 l 96.4,-400.8 -199.3,-192.7 c -107.3,-105.1 -240.9,-245.3 -295.7,-308.8 l -100.7,-120.5 -385.5,83.2 c -411.8,87.6 -484.1,87.6 -569.5,-6.6 -63.5,-70.1 -341.7,-790.7 -341.7,-884.9 0,-116.1 72.3,-181.8 444.6,-409.6 l 300.1,-181.8 v -330.7 c 0,-181.8 6.6,-365.8 13.1,-409.6 13.1,-78.9 17.5,-81 127,-94.2 149,-19.7 418.4,-89.8 595.8,-153.3 122.7,-43.8 140.2,-46 131.4,-15.3 -78.9,269.4 -105.1,567.3 -76.7,841.1 98.6,957.2 757.9,1726 1690.9,1966.9 225.6,59.1 624.2,78.9 869.6,43.8 795.1,-116.1 1482.9,-672.4 1765.4,-1425.9 113.9,-300.1 144.6,-475.3 144.6,-810.4 0,-330.7 -48.2,-569.5 -177.4,-880.5 -188.4,-449 -595.8,-882.7 -1042.6,-1106.1 -433.7,-219 -922.1,-293.5 -1379.9,-214.6 -105.1,19.7 -194.9,30.7 -201.5,26.3 -4.4,-4.4 26.3,-96.4 67.9,-203.7 41.6,-107.3 96.4,-291.3 122.7,-411.8 l 50.4,-214.6 394.3,8.8 394.3,8.8 216.8,-332.9 c 190.6,-293.5 227.8,-337.3 304.4,-368 65.7,-26.3 107.3,-30.6 157.7,-15.3 144.6,39.4 751.3,313.2 799.5,357 96.4,92 96.4,162.1 2.2,549.8 -46,195 -85.4,368 -85.4,385.5 0,17.5 96.4,124.8 216.9,240.9 118.3,116.1 249.7,254.1 291.3,306.6 l 76.7,96.4 385.5,-81.1 c 238.8,-50.4 409.6,-76.7 449,-67.9 111.7,24.1 170.8,118.3 335.1,523.5 216.8,536.6 225.6,510.3 -293.5,825.8 l -311,186.2 6.6,284.7 c 4.4,155.5 -2.2,348.3 -13.1,429.3 l -17.5,146.7 313.2,201.5 c 361.4,230 422.7,291.3 422.7,414 0,98.6 -297.9,812.6 -368,880.5 -83.2,85.4 -166.5,83.2 -573.9,-15.3 l -383.3,-92 -39.4,46 c -107.3,124.9 -409.6,418.4 -490.6,479.7 -52.5,37.2 -94.2,78.9 -94.2,94.2 0,15.3 35,188.4 78.8,385.5 83.3,383.3 83.3,460 2.2,547.6 -50.4,54.8 -799.5,368 -880.5,368 -24.2,-0.4 -79,-18 -120.6,-39.9 z"
       id="path4"
       style="fill:#4bb3fd;fill-opacity:1"
       inkscape:connector-curvature="0" /><path
       d="m 5957.7,2834.8 c -24.1,-4.4 -98.6,-19.7 -164.3,-32.9 -65.7,-13.1 -214.6,-67.9 -328.6,-122.7 -179.6,-85.4 -234.4,-127 -405.2,-300.1 -330.7,-332.9 -464.4,-676.8 -444.6,-1139 17.5,-424.9 177.4,-768.8 486.2,-1060.1 300.1,-278.2 637.4,-407.4 1053.6,-405.2 411.8,2.2 744.7,135.8 1042.6,416.2 300.1,284.7 457.8,630.8 475.3,1049.2 19.7,462.2 -116.1,808.2 -444.6,1139 -214.6,214.6 -381.1,317.6 -657.1,403 -146.8,43.8 -512.5,76.7 -613.3,52.6 z"
       id="path6"
       style="fill:#4bb3fd;fill-opacity:1"
       inkscape:connector-curvature="0" /><path
       d="m 2420.3,488.9 c -59.1,-54.8 -67.9,-87.6 -109.5,-335.1 -26.3,-148.9 -48.2,-273.8 -50.4,-276 -2.2,0 -67.9,-24.1 -146.8,-52.6 -78.9,-26.3 -199.3,-78.8 -269.4,-113.9 l -127,-63.5 -232.2,166.5 c -164.2,118.3 -249.7,164.3 -297.8,164.3 -54.8,0 -105.1,-39.4 -291.3,-221.2 -148.9,-146.8 -230,-245.3 -238.7,-287 -15.3,-70.1 6.6,-113.9 216.8,-411.8 l 107.3,-153.3 -78.8,-168.7 c -43.8,-94.2 -92,-216.8 -105.1,-273.8 -30.7,-116.1 -10.9,-105.1 -354.8,-162.1 -212.5,-32.9 -240.9,-43.8 -291.3,-102.9 -54.8,-65.7 -54.8,-72.3 -48.2,-378.9 6.6,-291.3 11,-315.4 56.9,-365.8 30.7,-32.9 87.6,-59.1 142.4,-67.9 50.4,-8.8 177.4,-28.5 280.4,-48.2 l 188.4,-35 28.5,-89.8 c 13.1,-50.4 63.5,-175.2 111.7,-276 l 85.4,-184 -157.9,-221.2 c -221.2,-308.8 -219,-324.2 37.2,-584.8 216.8,-219 295.7,-271.6 376.7,-249.7 28.5,6.6 142.4,76.7 249.7,155.5 109.5,78.9 210.3,146.8 227.8,153.3 15.3,6.6 76.7,-13.1 133.6,-41.6 59.1,-28.5 170.8,-76.7 249.7,-102.9 78.9,-28.5 148.9,-56.9 157.7,-63.5 8.8,-6.6 35,-129.2 59.1,-269.4 24.1,-140.2 54.8,-276 67.9,-302.3 39.4,-72.3 113.9,-87.6 427.1,-87.6 396.5,0 394.3,-2.2 457.8,383.3 l 46,280.4 148.9,50.4 c 81,26.3 203.7,78.9 273.8,113.9 l 127,63.5 227.8,-159.9 c 317.6,-223.4 315.4,-225.6 611.1,65.7 291.3,289.1 291.3,289.1 70.1,600.1 -85.4,120.5 -155.5,227.8 -155.5,240.9 0,13.1 21.9,59.1 46,102.9 26.3,43.8 74.5,159.9 109.5,258.5 l 61.3,179.6 280.4,48.2 c 385.5,67.9 378.9,59.1 378.9,477.5 0,418.4 6.6,409.6 -378.9,477.5 l -280.4,48.2 -52.6,153.3 c -30.7,85.4 -81,205.9 -116.1,271.6 l -63.5,120.5 162.1,227.8 c 225.6,324.2 225.6,326.4 -67.9,613.3 -289.1,287 -289.1,287 -606.7,61.3 l -227.8,-162.1 -142.4,72.3 c -78.9,39.4 -201.5,89.8 -273.8,111.7 -72.3,21.9 -133.6,41.6 -138,43.8 -2.2,2.2 -26.3,120.5 -50.4,262.9 -48.2,278.2 -76.7,348.3 -164.3,381.1 -30.7,13.1 -181.8,21.9 -337.3,21.9 -280.1,0 -284.5,0 -350.2,-59.2 z m 696.5,-1112.7 c 203.7,-41.6 512.5,-188.4 687.8,-328.6 146.7,-118.3 315.4,-337.3 411.8,-530.1 199.3,-411.8 201.5,-915.6 2.2,-1331.7 -168.7,-354.8 -383.3,-571.7 -736,-744.7 -442.5,-219 -915.6,-219 -1358,0 -341.7,166.4 -556.3,381.1 -722.8,722.8 -219,442.4 -219,915.5 0,1358 166.5,341.7 381.1,554.2 722.8,722.8 317.6,157.8 644,199.4 992.2,131.5 z"
       id="path8"
       style="fill:#4bb3fd;fill-opacity:1"
       inkscape:connector-curvature="0" /></g></g>
</svg>