<?xml version="1.0" encoding="UTF-8" standalone="no"?>
<!-- Svg Vector Icons : http://www.onlinewebfonts.com/icon -->

<svg
   xmlns:dc="http://purl.org/dc/elements/1.1/"
   xmlns:cc="http://creativecommons.org/ns#"
   xmlns:rdf="http://www.w3.org/1999/02/22-rdf-syntax-ns#"
   xmlns:svg="http://www.w3.org/2000/svg"
   xmlns="http://www.w3.org/2000/svg"
   xmlns:sodipodi="http://sodipodi.sourceforge.net/DTD/sodipodi-0.dtd"
   xmlns:inkscape="http://www.inkscape.org/namespaces/inkscape"
   version="1.1"
   x="0px"
   y="0px"
   viewBox="0 0 1000 1000"
   enable-background="new 0 0 1000 1000"
   xml:space="preserve"
   id="svg8"
   sodipodi:docname="start.svg"
   inkscape:version="0.92.5 (2060ec1f9f, 2020-04-08)"><defs
   id="defs12" /><sodipodi:namedview
   pagecolor="#ffffff"
   bordercolor="#666666"
   borderopacity="1"
   objecttolerance="10"
   gridtolerance="10"
   guidetolerance="10"
   inkscape:pageopacity="0"
   inkscape:pageshadow="2"
   inkscape:window-width="1848"
   inkscape:window-height="1016"
   id="namedview10"
   showgrid="false"
   inkscape:zoom="0.236"
   inkscape:cx="500"
   inkscape:cy="500"
   inkscape:window-x="72"
   inkscape:window-y="27"
   inkscape:window-maximized="1"
   inkscape:current-layer="svg8" />
<metadata
   id="metadata2"> Svg Vector Icons : http://www.onlinewebfonts.com/icon <rdf:RDF><cc:Work
     rdf:about=""><dc:format>image/svg+xml</dc:format><dc:type
       rdf:resource="http://purl.org/dc/dcmitype/StillImage" /></cc:Work></rdf:RDF></metadata>
<g
   id="g6"
   style="fill:#00408b;fill-opacity:1"><path
     d="M 924.3,255.1 C 789,20.7 489.3,-59.6 255,75.7 20.7,211 -59.6,510.6 75.7,745 211,979.3 510.6,1059.6 745,924.3 979.3,789 1059.6,489.4 924.3,255.1 Z M 696,839.4 C 508.6,947.6 268.8,883.4 160.6,696 52.3,508.5 116.6,268.8 304,160.6 491.4,52.4 731.2,116.6 839.4,304 947.6,491.5 883.4,731.2 696,839.4 Z M 676.4,480.1 419.8,330.5 c -23.4,-13.6 -42.2,-2.7 -42.1,24.3 l 1.3,297 c 0.1,27 19.2,38 42.6,24.5 l 254.6,-147 c 23.5,-13.5 23.5,-35.6 0.2,-49.2 z"
     id="path4"
     inkscape:connector-curvature="0"
     style="fill:#00408b;fill-opacity:1" /></g>
</svg>