<?xml version="1.0" encoding="utf-8"?>
<!-- Svg Vector Icons : http://www.onlinewebfonts.com/icon -->
<!DOCTYPE svg PUBLIC "-//W3C//DTD SVG 1.1//EN" "http://www.w3.org/Graphics/SVG/1.1/DTD/svg11.dtd">
<svg version="1.1" xmlns="http://www.w3.org/2000/svg" xmlns:xlink="http://www.w3.org/1999/xlink" x="0px" y="0px" viewBox="0 0 1000 1000" enable-background="new 0 0 1000 1000" xml:space="preserve">
<metadata> Svg Vector Icons : http://www.onlinewebfonts.com/icon </metadata>
<g><path d="M500,10C229.4,10,10,229.3,10,500c0,270.6,219.3,490,490,490c270.6,0,490-219.4,490-490C990,229.3,770.6,10,500,10z M500,881.1c-210.5,0-381.1-170.6-381.1-381.1c0-210.5,170.6-381.1,381.1-381.1c210.5,0,381.1,170.6,381.1,381.1C881.1,710.5,710.5,881.1,500,881.1z"/><path d="M335.8,336.7h326.6V665H335.8V336.7z"/></g>
</svg>